<?xml version="1.0" standalone="no"?>
<!DOCTYPE svg PUBLIC "-//W3C//DTD SVG 20010904//EN"
 "http://www.w3.org/TR/2001/REC-SVG-20010904/DTD/svg10.dtd">
<svg version="1.0" xmlns="http://www.w3.org/2000/svg"
 width="270.000000pt" height="270.000000pt" viewBox="0 0 270.000000 270.000000"
 preserveAspectRatio="xMidYMid meet">
<metadata>
Created by potrace 1.14, written by Peter Selinger 2001-2017
</metadata>
<g transform="translate(0.000000,270.000000) scale(0.100000,-0.100000)"
fill="#000000" stroke="none">
<path d="M423 2388 c-15 -19 -30 -75 -38 -138 -4 -30 -8 -62 -10 -71 -1 -8 -6
-42 -9 -75 -4 -32 -11 -86 -16 -119 -5 -33 -12 -80 -15 -105 -5 -43 -13 -97
-20 -150 -2 -14 -6 -45 -10 -70 -3 -25 -8 -56 -10 -70 -2 -14 -7 -52 -10 -85
-4 -33 -8 -67 -10 -75 -2 -8 -7 -40 -10 -70 -3 -30 -8 -66 -10 -80 -3 -14 -12
-79 -20 -145 -9 -66 -18 -133 -20 -150 -5 -38 -49 -360 -65 -478 -13 -97 -9
-146 15 -183 30 -46 74 -22 94 51 6 22 20 105 31 185 12 80 23 154 25 165 2
11 4 24 4 28 1 4 61 6 133 5 l133 -3 7 -50 c4 -27 10 -70 13 -95 3 -25 8 -52
10 -60 2 -8 7 -40 10 -70 8 -74 32 -155 49 -170 8 -6 23 -10 32 -8 20 3 55 57
56 85 1 20 -11 149 -16 180 -3 11 -7 44 -11 74 -3 30 -8 65 -10 79 -4 27 -8
59 -25 190 -6 47 -13 96 -15 110 -4 27 -8 56 -25 190 -6 47 -13 96 -15 110 -4
27 -8 56 -25 190 -6 47 -13 96 -15 110 -4 27 -8 56 -25 190 -6 47 -13 96 -15
110 -2 14 -6 48 -10 75 -3 28 -10 80 -15 118 -6 37 -13 89 -16 115 -14 119
-37 172 -74 172 -10 0 -22 -6 -27 -12z m51 -793 c4 -33 9 -67 11 -75 2 -8 6
-42 10 -75 7 -66 13 -114 20 -160 3 -16 7 -52 10 -80 3 -27 10 -74 15 -104 6
-30 10 -58 10 -63 0 -4 -42 -8 -94 -8 -104 0 -108 2 -95 60 4 19 10 53 12 75
16 121 29 221 42 310 8 55 17 123 20 150 3 28 8 59 10 70 2 11 4 27 5 35 3 18
15 -51 24 -135z"/>
<path d="M1053 1372 c2 -997 3 -1031 21 -1051 27 -29 62 -27 83 6 17 25 18 68
20 548 1 286 2 530 2 543 1 12 7 22 14 22 8 0 34 -65 67 -167 30 -93 55 -170
55 -173 0 -3 8 -25 17 -50 9 -25 67 -198 128 -385 62 -188 119 -346 128 -353
46 -35 86 19 85 113 0 61 -8 87 -257 850 l-52 160 80 5 c86 6 107 15 147 65
69 84 84 163 82 435 -1 182 -3 201 -27 277 -20 61 -37 93 -70 130 l-44 48
-241 3 -240 3 2 -1029z m464 734 l28 -24 0 -162 0 -162 -28 -24 c-27 -23 -34
-24 -183 -24 l-154 0 -1 28 c-1 39 -1 321 0 360 l1 32 154 0 c149 0 156 -1
183 -24z"/>
<path d="M2219 2378 c-59 -40 -92 -124 -159 -413 -33 -143 -62 -269 -65 -280
-2 -11 -12 -56 -21 -100 -21 -102 -26 -315 -9 -420 7 -44 23 -120 34 -170 12
-49 26 -110 31 -135 10 -50 10 -50 40 -175 56 -242 78 -302 129 -350 l32 -30
151 0 c149 0 151 0 169 25 34 46 28 198 -8 226 -13 9 -53 13 -141 14 -68 0
-132 5 -142 10 -18 9 -43 75 -55 142 -5 25 -48 211 -93 398 -41 175 -38 305
12 510 21 85 39 162 41 170 14 65 58 251 66 278 6 17 19 37 29 42 10 6 75 10
143 10 106 0 126 3 140 18 37 41 42 174 8 222 -18 24 -22 25 -158 28 -131 2
-141 1 -174 -20z"/>
</g>
</svg>
